<svg width="24" height="36" viewBox="0 0 24 36" fill="none" xmlns="http://www.w3.org/2000/svg">
<path d="M3.25781 10.5078C3.25781 10.2891 3.32812 10.1094 3.46875 9.96875C3.60938 9.82812 3.78906 9.75781 4.00781 9.75781H19.9922C20.2109 9.75781 20.3906 9.82812 20.5312 9.96875C20.6719 10.1094 20.7422 10.2891 20.7422 10.5078C20.7422 10.7109 20.6719 10.8867 20.5312 11.0352C20.3906 11.1836 20.2109 11.2578 19.9922 11.2578H4.00781C3.78906 11.2578 3.60938 11.1836 3.46875 11.0352C3.32812 10.8867 3.25781 10.7109 3.25781 10.5078ZM3.25781 15.5C3.25781 15.2969 3.32812 15.1211 3.46875 14.9727C3.60938 14.8242 3.78906 14.75 4.00781 14.75H19.9922C20.2109 14.75 20.3906 14.8242 20.5312 14.9727C20.6719 15.1211 20.7422 15.2969 20.7422 15.5C20.7422 15.7031 20.6719 15.8789 20.5312 16.0273C20.3906 16.1758 20.2109 16.25 19.9922 16.25H4.00781C3.78906 16.25 3.60938 16.1758 3.46875 16.0273C3.32812 15.8789 3.25781 15.7031 3.25781 15.5ZM4.00781 19.7422C3.78906 19.7422 3.60938 19.8164 3.46875 19.9648C3.32812 20.1133 3.25781 20.2891 3.25781 20.4922C3.25781 20.7109 3.32812 20.8906 3.46875 21.0312C3.60938 21.1719 3.78906 21.2422 4.00781 21.2422H19.9922C20.2109 21.2422 20.3906 21.1719 20.5312 21.0312C20.6719 20.8906 20.7422 20.7109 20.7422 20.4922C20.7422 20.2891 20.6719 20.1133 20.5312 19.9648C20.3906 19.8164 20.2109 19.7422 19.9922 19.7422H4.00781Z" fill="#23272F"/>
</svg>
