<svg width="24" height="25" viewBox="0 0 24 25" fill="none" xmlns="http://www.w3.org/2000/svg">
<path d="M7.45312 3.24215C7.07812 3.19527 6.69922 3.24215 6.31641 3.38277C5.93359 3.5234 5.5625 3.73433 5.20312 4.01558C4.1875 4.79683 3.53906 5.75386 3.25781 6.88668C2.97656 8.01949 2.97656 9.17965 3.25781 10.3671C3.38281 10.9453 3.57031 11.5312 3.82031 12.125C4.07031 12.7187 4.35938 13.3007 4.6875 13.8711C5.01562 14.4414 5.38281 15 5.78906 15.5468C6.21094 16.0781 6.65625 16.5937 7.125 17.0937C7.59375 17.5937 8.08594 18.0703 8.60156 18.5234C9.11719 18.9765 9.64844 19.3867 10.1953 19.7539C10.7422 20.1211 11.2969 20.4453 11.8594 20.7265C12.4375 21.0078 13.0156 21.2343 13.5938 21.4062C14.75 21.7656 15.9023 21.8437 17.0508 21.6406C18.1992 21.4375 19.1953 20.8593 20.0391 19.9062C20.0391 19.8906 20.0391 19.8828 20.0391 19.8828C20.0391 19.8828 20.0469 19.8828 20.0625 19.8828C20.3438 19.539 20.5664 19.1875 20.7305 18.8281C20.8945 18.4687 20.9688 18.1015 20.9531 17.7265C20.9375 17.3515 20.8164 17.0039 20.5898 16.6836C20.3633 16.3632 20.0781 16.1015 19.7344 15.8984H19.7578C19.3828 15.6796 19.0391 15.4765 18.7266 15.289C18.4141 15.1015 18.125 14.9296 17.8594 14.7734C17.5781 14.6328 17.3008 14.5156 17.0273 14.4218C16.7539 14.3281 16.4688 14.289 16.1719 14.3046C15.9687 14.3046 15.8008 14.3789 15.668 14.5273C15.5352 14.6757 15.4688 14.8515 15.4688 15.0546C15.4688 15.0546 15.4688 15.0586 15.4688 15.0664C15.4688 15.0742 15.4688 15.0781 15.4688 15.0781C15.4688 15.2812 15.543 15.4531 15.6914 15.5937C15.8398 15.7343 16.0156 15.8046 16.2188 15.8046C16.2188 15.8046 16.2227 15.8046 16.2305 15.8046C16.2383 15.8046 16.2422 15.7968 16.2422 15.7812V15.8046C16.3047 15.789 16.4141 15.8046 16.5703 15.8515C16.7266 15.8984 16.9219 15.9843 17.1562 16.1093C17.375 16.2343 17.6406 16.3906 17.9531 16.5781C18.2656 16.7656 18.6094 16.9687 18.9844 17.1875C18.9844 17.1875 18.9844 17.1914 18.9844 17.1992C18.9844 17.207 18.9844 17.2109 18.9844 17.2109C19.1875 17.3203 19.3164 17.4179 19.3711 17.5039C19.4258 17.5898 19.4531 17.6875 19.4531 17.7968C19.4688 17.9062 19.4375 18.0546 19.3594 18.2421C19.2813 18.4296 19.1328 18.6484 18.9141 18.8984C18.2734 19.6171 17.5391 20.0507 16.7109 20.1992C15.8828 20.3476 14.9844 20.2734 14.0156 19.9765C13.0469 19.6796 12.0547 19.1875 11.0391 18.5C10.0234 17.8125 9.07812 17.0078 8.20312 16.0859C7.34375 15.164 6.60547 14.1718 5.98828 13.1093C5.37109 12.0468 4.94531 11.0234 4.71094 10.039C4.49219 9.03902 4.48047 8.13277 4.67578 7.32027C4.87109 6.50777 5.35156 5.80465 6.11719 5.2109C6.38281 5.00777 6.61328 4.87496 6.80859 4.81246C7.00391 4.74996 7.15625 4.72652 7.26562 4.74215C7.375 4.75777 7.47266 4.79683 7.55859 4.85933C7.64453 4.92183 7.73438 5.05465 7.82812 5.25777C7.82812 5.2734 7.82812 5.28121 7.82812 5.28121C7.82812 5.28121 7.82812 5.28902 7.82812 5.30465V5.28121C8.09375 5.81246 8.32812 6.2734 8.53125 6.66402C8.73438 7.05465 8.88281 7.37496 8.97656 7.62496C9.02344 7.74996 9.05469 7.85152 9.07031 7.92965C9.08594 8.00777 9.08594 8.07027 9.07031 8.11715C9.07031 8.1484 9.0625 8.17574 9.04688 8.19918C9.03125 8.22261 9.01563 8.24996 9 8.28121C8.6875 8.48433 8.39453 8.67183 8.12109 8.84371C7.84766 9.01558 7.60156 9.2109 7.38281 9.42965C7.27344 9.55465 7.16797 9.69136 7.06641 9.8398C6.96484 9.98824 6.89062 10.164 6.84375 10.3671C6.8125 10.5546 6.81641 10.7421 6.85547 10.9296C6.89453 11.1171 6.95313 11.2968 7.03125 11.4687C7.3125 12.125 7.64844 12.75 8.03906 13.3437C8.42969 13.9375 8.86719 14.4921 9.35156 15.0078C9.83594 15.5234 10.3672 16 10.9453 16.4375C11.5078 16.875 12.1016 17.2578 12.7266 17.5859C12.8984 17.6953 13.0781 17.7734 13.2656 17.8203C13.4531 17.8671 13.6328 17.8828 13.8047 17.8671C13.9922 17.8359 14.1484 17.75 14.2734 17.6093C14.3984 17.4687 14.4609 17.3046 14.4609 17.1171C14.4609 17.1015 14.4609 17.0859 14.4609 17.0703C14.4609 17.0546 14.4609 17.039 14.4609 17.0234C14.4297 16.8359 14.3438 16.6796 14.2031 16.5546C14.0625 16.4296 13.8984 16.3671 13.7109 16.3671C13.6953 16.3671 13.6797 16.3671 13.6641 16.3671C13.6484 16.3671 13.6328 16.3671 13.6172 16.3671C13.6172 16.3671 13.6133 16.3671 13.6055 16.3671C13.5977 16.3671 13.5625 16.3515 13.5 16.3203C13.5 16.3203 13.4961 16.3164 13.4883 16.3086C13.4805 16.3007 13.4688 16.2968 13.4531 16.2968C12.8906 16 12.3594 15.6562 11.8594 15.2656C11.3594 14.875 10.8906 14.4492 10.4531 13.9882C10.0156 13.5273 9.625 13.0312 9.28125 12.5C8.9375 11.9843 8.64063 11.4375 8.39062 10.8593C8.39062 10.8437 8.38672 10.832 8.37891 10.8242C8.37109 10.8164 8.36719 10.8125 8.36719 10.8125C8.33594 10.7343 8.32031 10.6914 8.32031 10.6836C8.32031 10.6757 8.32031 10.6718 8.32031 10.6718C8.32031 10.6718 8.32812 10.6562 8.34375 10.625C8.35938 10.5937 8.39062 10.5546 8.4375 10.5078C8.5625 10.3828 8.75781 10.2343 9.02344 10.0625C9.28906 9.89058 9.59375 9.68746 9.9375 9.45308C9.96875 9.43746 9.99609 9.41793 10.0195 9.39449C10.043 9.37105 10.0625 9.35152 10.0781 9.3359C10.2188 9.17965 10.332 9.00386 10.418 8.80855C10.5039 8.61324 10.5547 8.42183 10.5703 8.23433C10.5859 8.03121 10.5742 7.8359 10.5352 7.6484C10.4961 7.4609 10.4453 7.28121 10.3828 7.10933C10.2578 6.74996 10.0898 6.37496 9.87891 5.98433C9.66797 5.59371 9.4375 5.1484 9.1875 4.6484C9.01562 4.2734 8.78125 3.9609 8.48438 3.7109C8.1875 3.4609 7.84375 3.30465 7.45312 3.24215Z" fill="#23272F"/>
</svg>
