<svg width="26" height="25" viewBox="0 0 26 25" fill="none" xmlns="http://www.w3.org/2000/svg">
<path d="M3.83276 7.39754C3.83276 7.17396 3.90862 6.99031 4.06034 6.84658C4.21205 6.70285 4.39171 6.63098 4.59932 6.63098H20.9606C21.1682 6.63098 21.3479 6.70285 21.4996 6.84658C21.6513 6.99031 21.7272 7.17396 21.7272 7.39754C21.7272 7.60515 21.6513 7.78482 21.4996 7.93653C21.3479 8.08825 21.1682 8.1641 20.9606 8.1641H4.59932C4.39171 8.1641 4.21205 8.08825 4.06034 7.93653C3.90862 7.78482 3.83276 7.60515 3.83276 7.39754ZM3.83276 12.5C3.83276 12.2924 3.90862 12.1127 4.06034 11.961C4.21205 11.8093 4.39171 11.7334 4.59932 11.7334H8.69563C8.90324 11.7334 9.0829 11.8093 9.23462 11.961C9.38633 12.1127 9.46219 12.2924 9.46219 12.5C9.46219 12.7076 9.38633 12.8872 9.23462 13.0389C9.0829 13.1907 8.90324 13.2665 8.69563 13.2665H4.59932C4.39171 13.2665 4.21205 13.1907 4.06034 13.0389C3.90862 12.8872 3.83276 12.7076 3.83276 12.5ZM4.59932 16.8358C4.39171 16.8358 4.21205 16.9117 4.06034 17.0634C3.90862 17.2151 3.83276 17.3948 3.83276 17.6024C3.83276 17.826 3.90862 18.0096 4.06034 18.1533C4.21205 18.2971 4.39171 18.3689 4.59932 18.3689H8.69563C8.90324 18.3689 9.0829 18.2971 9.23462 18.1533C9.38633 18.0096 9.46219 17.826 9.46219 17.6024C9.46219 17.3948 9.38633 17.2151 9.23462 17.0634C9.0829 16.9117 8.90324 16.8358 8.69563 16.8358H4.59932ZM19.2358 17.8659C19.4434 17.5305 19.6111 17.1712 19.7389 16.7879C19.8667 16.4046 19.9305 15.9974 19.9305 15.5662C19.9305 14.4323 19.5313 13.4661 18.7328 12.6676C17.9343 11.8691 16.9681 11.4699 15.8342 11.4699C14.7163 11.4699 13.7581 11.8691 12.9596 12.6676C12.1611 13.4661 11.7619 14.4323 11.7619 15.5662C11.7619 16.7001 12.1611 17.6663 12.9596 18.4648C13.7581 19.2633 14.7163 19.6625 15.8342 19.6625C16.2654 19.6625 16.6766 19.5986 17.0679 19.4709C17.4592 19.3431 17.8145 19.1674 18.1339 18.9439L20.4096 21.2196C20.5534 21.3633 20.733 21.4352 20.9486 21.4352C21.1642 21.4352 21.3439 21.3633 21.4876 21.2196C21.6473 21.0759 21.7272 20.8962 21.7272 20.6806C21.7272 20.465 21.6473 20.2853 21.4876 20.1416L19.2358 17.8659ZM18.3974 15.5662C18.3974 16.2689 18.1499 16.8718 17.6548 17.3748C17.1597 17.8779 16.5529 18.1294 15.8342 18.1294C15.1315 18.1294 14.5327 17.8779 14.0376 17.3748C13.5425 16.8718 13.295 16.2689 13.295 15.5662C13.295 14.8635 13.5425 14.2607 14.0376 13.7576C14.5327 13.2545 15.1315 13.003 15.8342 13.003C16.5529 13.003 17.1597 13.2545 17.6548 13.7576C18.1499 14.2607 18.3974 14.8635 18.3974 15.5662Z" fill="#23272F"/>
</svg>
