<svg width="196" height="59" viewBox="0 0 196 59" fill="none" xmlns="http://www.w3.org/2000/svg">
<g clip-path="url(#clip0_0_28)">
<path d="M35.5909 10.5187C33.7903 12.6711 32.3899 15.1493 31.4196 17.7854C30.4593 20.4216 29.9492 23.2354 29.9092 26.0493C29.8691 30.1961 30.8995 34.4119 32.8501 38.0946H33.7203C33.0601 36.8901 32.3799 35.4881 31.9198 34.1848C30.9895 31.5783 30.5794 28.8138 30.5293 26.0493C30.4893 20.5104 32.1799 14.9814 35.5809 10.5187H35.5909ZM25.5878 29.6827C25.5578 29.9394 25.6078 30.2257 25.8179 30.3639L25.8479 30.3145C26.088 29.8406 26.7282 29.6629 27.2583 29.7518C28.0486 29.8702 28.7288 30.3935 29.1889 31.0353C29.5991 31.5783 29.9892 32.1806 30.2192 32.8223C28.9689 29.0508 28.7588 24.9336 29.6091 21.0535C28.9989 21.8828 28.5287 22.8208 28.2486 23.7982L28.2086 23.7883C28.5487 22.5838 28.4887 21.2608 28.0486 20.076C27.5784 18.8517 26.7082 17.7953 25.5878 17.1042L25.5678 17.114C26.128 18.2593 25.9179 19.612 25.7479 20.8757C25.5778 22.1593 25.4878 23.5613 26.228 24.6374C26.8082 25.4668 27.8485 25.9999 28.1286 26.9675L27.9986 26.9576C27.5384 26.2961 26.7182 25.921 25.8979 25.9703V25.9802C26.6782 26.6516 27.3084 27.4809 27.7485 28.3991L27.7085 28.4288C27.2583 28.251 26.7482 28.3004 26.3381 28.5472C25.9279 28.7842 25.6479 29.2285 25.5878 29.6827ZM36.8213 32.0424C36.6012 31.3414 35.7409 30.7391 35.0007 30.7391C34.0904 30.7391 33.3202 31.1834 33.0501 31.8646H33.0401C32.9801 31.2031 33.3802 30.5614 33.8804 30.1072C34.4105 29.6135 35.0607 29.268 35.5909 28.7842C36.1111 28.3103 36.5212 27.6389 36.4311 26.9576C35.911 27.2538 35.2808 27.3032 34.6706 27.3526C34.0004 27.4118 33.2702 27.5303 32.8 28.0042H32.77C32.9001 27.1354 33.7803 26.5923 34.6206 26.2764C35.4509 25.9703 36.3811 25.7432 36.9513 25.062C37.5215 24.3906 37.5815 23.4329 37.4715 22.5739C37.3714 21.7051 37.1114 20.8461 37.1514 19.9773C37.1914 19.0986 37.6215 18.1705 38.4418 17.8447L38.4318 17.6966C28.9989 19.4441 30.6494 30.2355 33.8904 36.2681C34.0604 36.1792 34.2705 35.8139 34.2105 35.2709C34.1405 34.718 34.3505 34.4613 34.3005 33.8985C34.1505 32.072 35.981 31.7067 36.7913 32.0424H36.8213ZM31.8497 20.0069C32.54 18.8715 33.5603 17.9039 34.5906 17.7756C35.0207 17.7163 35.4609 17.7657 35.881 17.7262C36.3111 17.6867 36.7713 17.5386 37.0113 17.1733C37.2114 16.9067 37.2514 16.5315 37.5015 16.3242C37.6815 16.1761 37.9516 16.1366 38.1917 16.1662C38.4018 16.1958 38.6118 16.2847 38.8019 16.3736C38.6918 15.5837 38.0717 14.8827 37.2914 14.6556C36.5012 14.4384 35.6009 14.7149 35.0807 15.3369C34.8707 15.5936 34.7206 15.8898 34.4605 16.0971C34.2105 16.2847 33.8904 16.3736 33.6203 16.5118C32.8401 16.8968 32.58 17.5781 31.8497 20.0168V20.0069ZM30.4893 37.6306C29.6591 36.0213 28.2286 34.5896 26.5981 33.78L26.6181 33.701C27.8785 33.9972 29.0389 34.6884 29.8791 35.6559C30.4993 36.3569 30.9595 37.1962 31.1996 38.0848C31.3596 36.0706 30.2593 34.3527 29.8391 34.017C29.0689 33.3851 29.419 32.4965 28.2086 31.8054C26.8482 31.0254 24.6876 31.5388 23.8973 32.2497C23.0971 32.9606 22.727 34.0367 22.5969 35.0932L22.6269 35.1129C22.817 34.797 23.1371 34.5798 23.5072 34.5304C23.8873 34.4712 24.3074 34.6193 24.5675 34.8957C24.8676 35.2117 24.9576 35.6559 25.0877 36.0607C25.2077 36.4754 25.4078 36.9098 25.7979 37.0974C26.3381 37.3541 27.0983 36.9987 27.6885 36.8704C28.8788 36.6038 29.7091 37.0481 30.4893 37.6306ZM28.2787 13.224C29.2189 14.083 29.8892 15.2579 30.1592 16.5019C30.3493 17.4201 30.3293 18.3679 30.1092 19.2664C30.3593 18.3778 30.5994 17.4991 30.8594 16.6006C30.9995 16.0971 31.1395 15.5442 30.9295 15.0604C30.7194 14.5668 30.1992 14.2804 29.9092 13.8263C29.539 13.2339 29.6291 12.4539 29.349 11.822C28.9088 10.8446 27.6585 10.42 26.6081 10.657C25.5678 10.9038 24.7076 11.664 24.0674 12.5131L24.0974 12.5427C24.4075 12.365 24.8076 12.3255 25.1377 12.4539C25.5078 12.5921 25.7979 12.9179 25.8779 13.2931C25.978 13.7078 25.8479 14.1521 25.7579 14.5569C25.6679 14.9814 25.6278 15.4553 25.8679 15.8009C26.208 16.2946 26.9082 16.3242 27.4884 16.4723C28.4287 16.7191 29.249 17.4004 29.6391 18.2791C29.6591 18.3186 29.6691 18.3581 29.6891 18.3976C29.7591 16.6006 29.2289 14.7938 28.2086 13.303L28.2687 13.2437L28.2787 13.224ZM44.8837 3.08421C44.8137 2.88675 44.7437 2.70903 44.6537 2.53131C44.1535 1.48475 43.3533 0.56654 42.2529 0.211104C40.9525 -0.203571 39.4121 0.349329 38.6518 1.45513C38.8719 1.19843 39.182 1.00096 39.5321 0.961468C40.0823 0.902229 40.6725 1.26754 40.8025 1.79082C40.9125 2.22524 40.7325 2.68928 40.4624 3.05459C39.6421 4.17026 38.1617 4.58494 36.7813 4.83177C35.4008 5.08847 33.9104 5.29581 32.8601 6.20415C32.0398 6.90514 31.5797 7.9912 31.6297 9.05751C31.6697 9.72888 31.9098 10.3904 32.3099 10.9433C31.8598 10.6175 31.3596 10.3706 30.8294 10.2028C30.5694 10.1139 30.2593 10.0547 30.0692 10.2522C30.7594 10.4496 31.2396 11.0815 31.5697 11.7331C32.1398 12.8883 32.2299 13.8756 32.0598 15.169C32.1198 14.8136 33.8304 10.5089 38.4618 7.68513C35.841 10.3213 33.8704 13.4807 32.76 16.3834C33.2602 15.4455 33.8504 14.4582 34.9207 14.2014C36.1411 13.8954 37.4215 13.925 38.6718 13.7374C39.9122 13.5498 41.2026 13.066 41.9028 12.0293C41.0826 12.365 40.1723 12.4539 39.312 12.2663C38.4218 12.0688 37.6715 11.5061 37.0713 10.8446C38.4218 11.6344 40.1523 11.7331 41.6027 11.1506C43.1132 10.5582 44.3036 9.28459 44.8837 7.78386C45.4639 6.293 45.4239 4.58494 44.8837 3.08421ZM34.3905 38.0749C34.2005 38.223 34.0904 38.3513 34.0404 38.4698C35.6009 39.2202 37.1714 41.1849 37.6515 44.0383H38.8119V35.4782H35.2708C35.2808 36.5149 35.2708 37.443 34.3905 38.0749ZM26.018 38.0749C24.8576 38.0749 24.2174 37.6898 24.2074 36.8506C24.1974 36.0015 23.3972 35.5671 22.767 35.6165C22.5969 35.6263 22.4569 35.577 22.3368 35.4881H7.87241C12.5839 28.2017 15.5047 18.0915 16.6051 4.32823H25.8879V9.81774C25.9579 9.81774 26.028 9.80787 26.108 9.81774C26.7082 9.48205 27.7185 9.13649 28.9689 9.40307C29.259 9.07725 29.9092 8.56384 30.5494 8.55397C30.4193 7.00388 31.6397 4.17026 35.6609 3.73584C36.2311 2.99535 36.9413 2.49182 37.6415 2.33385V1.92904H9.49291V2.33385C11.2334 2.90649 12.2738 4.34798 12.2738 7.35931C12.2738 11.1013 11.4135 15.7614 9.71297 21.3398C8.00245 26.9083 5.75176 31.6277 2.9509 35.498H0V44.0581H1.16036C1.84056 40.0397 4.28131 38.1341 6.10187 38.1341H26.7282C26.4081 38.1045 26.168 38.0848 26.018 38.0848V38.0749ZM188.228 31.2327V35.6461H189.588C190.098 35.6658 190.528 35.6362 190.868 35.5671C191.199 35.4881 191.499 35.3696 191.749 35.2117C192.049 35.0241 192.299 34.7575 192.479 34.4415C192.659 34.1157 192.739 33.7603 192.739 33.3555C192.719 32.9408 192.609 32.5755 192.409 32.2596C192.199 31.9535 191.909 31.7165 191.559 31.5289C191.289 31.4203 191.018 31.3414 190.698 31.292C190.398 31.2426 189.958 31.2229 189.388 31.2229H188.228V31.2327ZM188.228 24.7362V28.8336H189.118C189.928 28.8533 190.538 28.6756 190.958 28.2905C191.369 27.9252 191.579 27.4019 191.579 26.7503C191.579 26.1283 191.359 25.6346 190.948 25.2891C190.528 24.9336 189.928 24.7559 189.148 24.7362H188.228ZM185.067 22.1988H189.078C190.078 22.1988 190.888 22.2876 191.499 22.4653C192.099 22.6529 192.609 22.8998 193.039 23.1959C193.509 23.5711 193.869 24.045 194.149 24.6276C194.41 25.2101 194.54 25.842 194.54 26.5133C194.54 27.244 194.38 27.8759 194.039 28.3991C193.709 28.9323 193.269 29.347 192.719 29.6432C193.159 29.732 193.549 29.8505 193.889 30.0183C194.229 30.1862 194.55 30.4034 194.84 30.6502C195.22 31.0353 195.52 31.4796 195.71 32.0029C195.9 32.5261 196 33.0692 196 33.6517C196 34.3033 195.88 34.9155 195.65 35.4585C195.41 36.0114 195.07 36.4853 194.61 36.8901C194.089 37.3344 193.509 37.6602 192.839 37.8675C192.179 38.0749 191.389 38.1835 190.498 38.1835H185.057V22.1889L185.067 22.1988ZM171.673 35.7251C173.253 35.7251 174.543 35.2117 175.544 34.175C176.564 33.1482 177.064 31.8251 177.064 30.2059C177.064 28.5966 176.554 27.2736 175.544 26.227C174.533 25.1903 173.243 24.6769 171.673 24.6769C170.092 24.6769 168.792 25.2002 167.781 26.227C166.761 27.2736 166.261 28.5966 166.281 30.2059C166.281 31.8251 166.781 33.1482 167.791 34.175C168.792 35.2117 170.082 35.7251 171.673 35.7251ZM171.673 21.8334C174.203 21.8334 176.274 22.6332 177.894 24.203C179.505 25.7729 180.325 27.787 180.325 30.2059C180.305 32.6545 179.485 34.6587 177.884 36.2088C176.264 37.7688 174.203 38.5488 171.673 38.5488C169.142 38.5488 167.051 37.7688 165.451 36.2088C163.84 34.6587 163.03 32.6545 163.03 30.2059C163.03 27.787 163.84 25.7729 165.451 24.2129C167.071 22.6529 169.142 21.8532 171.673 21.8334ZM148.635 22.1988V28.3794H155.488V22.1988H158.639V38.1934H155.488V31.0748H148.635V38.1934H145.475V22.1988H148.635ZM125.298 22.1988H128.449V32.9606L137.392 21.8334H139.583V38.1934H136.422V27.4019L127.479 38.5192H125.298V22.1988ZM109.153 22.1988V28.3794H115.995V22.1988H119.156V38.1934H115.995V31.0748H109.153V38.1934H105.992V22.1988H109.153ZM97.0797 24.7362H96.1094C95.0691 24.7362 94.2989 24.9435 93.7987 25.3878C93.3086 25.8222 93.0485 26.3949 93.0485 27.1452C93.0285 27.9153 93.2886 28.5077 93.7887 28.9224C94.2989 29.347 95.0891 29.5543 96.1594 29.5543H97.0797V24.7362ZM100.241 22.1988V38.1934H97.0797V32.0029H96.4995L92.3783 38.1934H88.5771L93.3786 31.7165C93.0585 31.6672 92.7484 31.5783 92.4383 31.4598C92.1382 31.3414 91.8581 31.1933 91.618 30.9859C91.0179 30.5712 90.5577 30.0282 90.2576 29.347C89.9475 28.6657 89.7975 27.9351 89.7975 27.1354C89.7975 26.3949 89.9375 25.7037 90.1976 25.062C90.4577 24.4202 90.8678 23.8772 91.398 23.4132C91.8481 23.0084 92.3883 22.7122 93.0185 22.4949C93.6487 22.2876 94.4889 22.1889 95.5492 22.1889H100.241V22.1988ZM77.9939 24.8843V29.5839H79.2843C79.8644 29.5839 80.3046 29.5444 80.5847 29.4654C80.8747 29.3865 81.1248 29.2581 81.3449 29.0903C81.625 28.873 81.835 28.6065 81.9751 28.2708C82.1251 27.9351 82.2052 27.5797 82.2252 27.2242C82.2252 26.849 82.1451 26.5133 81.9751 26.1875C81.815 25.8716 81.605 25.605 81.3149 25.3977C81.0748 25.2397 80.7847 25.1114 80.4446 25.0225C80.1145 24.9336 79.6544 24.8941 79.0842 24.8941H77.9839L77.9939 24.8843ZM74.8429 22.1988H79.5544C80.6347 22.1988 81.4949 22.2975 82.1151 22.4851C82.7353 22.6825 83.3055 22.9886 83.8257 23.423C84.3658 23.9068 84.7759 24.4795 85.056 25.1311C85.3361 25.8025 85.4862 26.5232 85.4862 27.2835C85.4862 27.9845 85.3761 28.646 85.1461 29.268C84.926 29.89 84.5859 30.4231 84.1558 30.8477C83.6856 31.3117 83.1054 31.6672 82.4252 31.9041C81.745 32.1411 80.9548 32.2596 80.0445 32.2596H78.0039V38.1934H74.8529V22.1988H74.8429ZM69.6913 22.1988V24.8843H63.8596V28.4584H69.4413V31.1439H63.8596V35.498H69.6913V38.1934H60.6986V22.1988H69.6913ZM48.6349 31.2327V35.6461H49.9953C50.5155 35.6658 50.9356 35.6362 51.2757 35.5671C51.6058 35.4881 51.9059 35.3696 52.156 35.2117C52.4661 35.0241 52.7061 34.7575 52.8862 34.4415C53.0762 34.1157 53.1563 33.7603 53.1563 33.3555C53.1363 32.9408 53.0162 32.5755 52.8162 32.2596C52.6061 31.9535 52.316 31.7165 51.9659 31.5289C51.7058 31.4203 51.4257 31.3414 51.1156 31.292C50.8055 31.2426 50.3654 31.2229 49.8052 31.2229H48.6349V31.2327ZM48.6349 24.7362V28.8336H49.5252C50.3354 28.8533 50.9456 28.6756 51.3657 28.2905C51.7859 27.9252 51.9859 27.4019 51.9859 26.7503C51.9859 26.1283 51.7758 25.6346 51.3557 25.2891C50.9356 24.9336 50.3354 24.7559 49.5552 24.7362H48.6349ZM45.4739 22.1988H49.4851C50.4955 22.1988 51.2957 22.2876 51.9059 22.4653C52.5161 22.6529 53.0162 22.8998 53.4464 23.1959C53.9165 23.5711 54.2766 24.045 54.5567 24.6276C54.8168 25.2101 54.9468 25.842 54.9468 26.5133C54.9468 27.244 54.7868 27.8759 54.4567 28.3991C54.1166 28.9323 53.6764 29.347 53.1363 29.6432C53.5664 29.732 53.9565 29.8505 54.2966 30.0183C54.6367 30.1862 54.9568 30.4034 55.2469 30.6502C55.627 31.0353 55.9271 31.4796 56.1172 32.0029C56.3072 32.5261 56.4173 33.0692 56.4173 33.6517C56.4173 34.3033 56.2872 34.9155 56.0572 35.4585C55.8271 36.0114 55.477 36.4853 55.0168 36.8901C54.5067 37.3344 53.9165 37.6602 53.2463 37.8675C52.5861 38.0749 51.8059 38.1835 50.9056 38.1835H45.4639V22.1889L45.4739 22.1988ZM36.4011 53.2994H18.9858V54.6224H36.4011V53.2994ZM178.885 53.2994H161.469V54.6224H178.885V53.2994ZM46.1741 56.518H45.9841C45.5239 56.518 44.7437 56.4786 44.1035 56.0244C43.6133 55.6887 43.0932 55.0568 43.0932 53.9214C43.0932 52.7958 43.6133 52.164 44.1035 51.8283C44.7437 51.384 45.5239 51.3346 45.9841 51.3346H46.1741V50.5546H47.4745V51.3346H47.6546C48.1147 51.3346 48.905 51.384 49.5452 51.8283C50.0253 52.164 50.5455 52.7958 50.5455 53.9214C50.5455 55.0568 50.0253 55.6887 49.5452 56.0244C48.905 56.4786 48.1147 56.518 47.6546 56.518H47.4745V57.4363H46.1741V56.518ZM46.1741 52.4404H45.9641C45.764 52.4404 45.3339 52.4602 44.9838 52.7169C44.7437 52.8946 44.4436 53.2599 44.4436 53.9214C44.4436 54.6026 44.7437 54.9482 44.9838 55.1358C45.3139 55.3925 45.644 55.4122 45.9641 55.4122H46.1741V52.4404ZM47.4745 55.4122H47.6746C47.9747 55.4122 48.3348 55.3925 48.6749 55.1358C48.905 54.9581 49.2051 54.5928 49.2051 53.9214C49.2051 53.3488 48.975 52.9341 48.6749 52.7169C48.4348 52.549 48.0947 52.4404 47.6746 52.4404H47.4745V55.4122ZM57.7577 56.0441H55.0569L54.4667 57.4363H53.0462L55.9571 50.683H56.9374L59.7583 57.4363H58.3579L57.7577 56.0441ZM57.3776 54.9976L56.4373 52.6181L55.467 54.9976H57.3776ZM62.7592 50.8212H66.6304V51.9369H64.0596V53.4574H64.9699C65.47 53.4574 66.1202 53.5265 66.6404 53.9806C67.0205 54.3262 67.2806 54.8297 67.2806 55.4517C67.2806 55.9059 67.1305 56.3008 66.9005 56.6365C66.3903 57.3474 65.5601 57.4363 64.9799 57.4363H62.7592V50.8212ZM64.0596 56.3206H64.6898C65.7301 56.3206 65.9302 55.8467 65.9302 55.4616C65.9302 55.0469 65.7001 54.5632 64.6998 54.5632H64.0596V56.3206ZM72.6422 50.8212C73.3925 50.8212 73.9126 50.9002 74.4128 51.3346C74.9529 51.7986 75.093 52.4503 75.093 52.9242C75.093 53.1809 75.053 53.9016 74.5428 54.4052C74.1727 54.7705 73.6125 54.9877 72.8423 54.9877H72.002V57.4363H70.6916V50.8212H72.6422ZM72.002 53.8819H72.5322C72.7823 53.8819 73.1024 53.8819 73.3825 53.6647C73.6225 53.487 73.7426 53.1809 73.7426 52.8946C73.7426 52.5293 73.5625 52.2824 73.3725 52.1442C73.1024 51.9566 72.7623 51.9369 72.4522 51.9369H72.002V53.8819ZM79.5744 50.8212V55.2641L83.2655 50.6731H84.1758V57.4363H82.8654V52.9736L79.1742 57.5646H78.264V50.8212H79.5744ZM89.2173 53.6252L91.6781 50.8212H93.3286L90.4977 53.8819L93.4786 57.4363H91.7481L89.3673 54.4743L89.2173 54.6224V57.4363H87.9069V50.8212H89.2173V53.6252ZM100.481 56.0441H97.7799L97.1898 57.4363H95.7693L98.6702 50.683H99.6505L102.481 57.4363H101.071L100.481 56.0441ZM100.101 54.9976L99.1504 52.6181L98.1901 54.9976H100.101ZM115.185 50.8212V56.3206H115.885V58.9271H114.685V57.4363H110.564V58.9271H109.363V56.3206C109.844 56.3403 110.224 55.9257 110.424 55.432C110.554 55.1062 110.664 54.6125 110.664 53.7042V50.8212H115.185ZM111.934 53.7042C111.934 54.7211 111.824 55.2247 111.704 55.5406C111.564 55.9059 111.374 56.1429 111.174 56.3206H113.885V51.9369H111.934V53.7042ZM120.617 50.8212C120.997 50.8212 121.717 50.8212 122.257 51.2458C122.648 51.542 122.878 52.0554 122.878 52.6083C122.878 53.4574 122.307 53.8029 122.127 53.9016C122.568 53.9806 122.828 54.1682 122.998 54.3262C123.408 54.7014 123.488 55.2247 123.488 55.5604C123.488 55.9454 123.378 56.4983 122.918 56.9031C122.407 57.3375 121.797 57.4363 121.217 57.4363H118.966V50.8212H120.617ZM120.267 53.566H120.647C120.847 53.566 121.657 53.5462 121.657 52.707C121.657 52.1047 121.187 51.8776 120.657 51.8776H120.267V53.566ZM120.267 56.3798H120.837C121.077 56.3798 121.437 56.3798 121.727 56.2021C122.047 56.0244 122.137 55.6986 122.137 55.4419C122.137 55.2345 122.067 54.8791 121.647 54.6915C121.367 54.5632 121.037 54.5632 120.757 54.5632H120.267V56.3798ZM130.62 51.9369H128.209V53.408H130.52V54.5237H128.209V56.3206H130.62V57.4363H126.899V50.8212H130.62V51.9369ZM136.042 50.8212C136.792 50.8212 137.322 50.9002 137.812 51.3346C138.352 51.7986 138.492 52.4503 138.492 52.9242C138.492 53.1809 138.452 53.9016 137.942 54.4052C137.572 54.7705 137.022 54.9877 136.242 54.9877H135.401V57.4363H134.091V50.8212H136.042ZM135.401 53.8819H135.932C136.182 53.8819 136.502 53.8819 136.782 53.6647C137.032 53.487 137.152 53.1809 137.152 52.8946C137.152 52.5293 136.972 52.2824 136.782 52.1442C136.502 51.9566 136.162 51.9369 135.852 51.9369H135.401V53.8819ZM145.385 51.9369H142.974V53.408H145.284V54.5237H142.974V56.3206H145.385V57.4363H141.673V50.8212H145.385V51.9369ZM150.166 50.8212V55.2641L153.867 50.6731H154.767V57.4363H153.467V52.9736L149.766 57.5646H148.866V50.8212H150.166ZM150.906 48.7083C151.126 49.2711 151.686 49.2909 151.816 49.2909C151.947 49.2909 152.507 49.2711 152.717 48.7083L153.627 49.0736C153.367 49.745 152.737 50.1794 151.816 50.1794C150.896 50.1794 150.266 49.745 150.006 49.0736L150.906 48.7083Z" fill="#611025"/>
</g>
<defs>
<clipPath id="clip0_0_28">
<rect width="196" height="59" fill="white"/>
</clipPath>
</defs>
</svg>
