<svg width="431" height="81" viewBox="0 0 431 81" fill="none" xmlns="http://www.w3.org/2000/svg">
<g clip-path="url(#clip0_0_64)">
<path d="M48.3019 14.4408C45.8583 17.3957 43.9577 20.7979 42.6409 24.4171C41.3377 28.0362 40.6453 31.8993 40.591 35.7624C40.5367 41.4554 41.935 47.2433 44.5822 52.2992H45.7633C44.8673 50.6455 43.9442 48.7207 43.3197 46.9315C42.0572 43.3531 41.5006 39.5577 41.4327 35.7624C41.3784 28.1582 43.6727 20.5675 48.2884 14.4408H48.3019ZM34.7264 40.7505C34.6856 41.103 34.7535 41.4961 35.0386 41.6858L35.0793 41.618C35.4051 40.9674 36.274 40.7234 36.9935 40.8454C38.0659 41.0081 38.9891 41.7265 39.6136 42.6075C40.1702 43.3531 40.6996 44.1799 41.0118 45.0609C39.3149 39.883 39.0298 34.2307 40.1837 28.9037C39.3556 30.0423 38.7176 31.33 38.3375 32.6719L38.2832 32.6584C38.7447 31.0047 38.6633 29.1883 38.0659 27.5618C37.4279 25.881 36.2468 24.4306 34.7264 23.4818L34.6992 23.4953C35.4594 25.0677 35.1743 26.9247 34.9436 28.6597C34.7128 30.4218 34.5906 32.3466 35.5952 33.8241C36.3826 34.9627 37.7944 35.6946 38.1745 37.023L37.9981 37.0094C37.3736 36.1013 36.2604 35.5862 35.1472 35.6539V35.6675C36.2061 36.5892 37.0613 37.7278 37.6587 38.9884L37.6044 39.0291C36.9935 38.7851 36.3011 38.8529 35.7445 39.1917C35.1879 39.5171 34.8078 40.127 34.7264 40.7505ZM49.9717 43.9901C49.6731 43.0277 48.5056 42.2009 47.501 42.2009C46.2656 42.2009 45.2203 42.8109 44.8537 43.7461H44.8402C44.7587 42.838 45.3017 41.9569 45.9805 41.3334C46.7 40.6557 47.5824 40.1812 48.3019 39.5171C49.0079 38.8664 49.5645 37.9447 49.4423 37.0094C48.7364 37.4161 47.8811 37.4838 47.053 37.5516C46.1434 37.6329 45.1524 37.7956 44.5143 38.4462H44.4736C44.6501 37.2534 45.8448 36.5079 46.9851 36.0742C48.1119 35.654 49.3744 35.3422 50.1482 34.4069C50.922 33.4852 51.0035 32.1704 50.8541 30.9911C50.7184 29.7983 50.3654 28.619 50.4197 27.4262C50.474 26.2198 51.0578 24.9457 52.171 24.4984L52.1574 24.2951C39.3556 26.6943 41.5956 41.5096 45.9941 49.7916C46.2249 49.6696 46.51 49.168 46.4285 48.4225C46.3335 47.6635 46.6186 47.311 46.5507 46.5384C46.3471 44.0308 48.8314 43.5293 49.931 43.9901H49.9717ZM43.2247 27.4669C44.1614 25.9081 45.5461 24.5797 46.9444 24.4035C47.5281 24.3222 48.1255 24.39 48.6956 24.3357C49.2794 24.2815 49.9039 24.0782 50.2297 23.5767C50.5012 23.2107 50.5555 22.6956 50.8949 22.411C51.1392 22.2076 51.5058 22.1534 51.8316 22.1941C52.1167 22.2347 52.4018 22.3567 52.6597 22.4787C52.5104 21.3944 51.6687 20.432 50.6098 20.1202C49.5373 19.822 48.3155 20.2015 47.6096 21.0555C47.3245 21.4079 47.1209 21.8145 46.7679 22.0992C46.4285 22.3567 45.9941 22.4787 45.6275 22.6685C44.5687 23.1971 44.2157 24.1324 43.2247 27.4804V27.4669ZM41.3784 51.6621C40.2516 49.4527 38.3103 47.4872 36.0975 46.3758L36.1246 46.2673C37.8352 46.674 39.4099 47.6228 40.5503 48.9512C41.392 49.9136 42.0164 51.0657 42.3423 52.2856C42.5595 49.5205 41.0661 47.1619 40.496 46.7011C39.4507 45.8336 39.9258 44.6136 38.2832 43.6648C36.4369 42.594 33.5045 43.2988 32.4321 44.2748C31.346 45.2507 30.8437 46.7282 30.6673 48.1785L30.708 48.2057C30.9659 47.7719 31.4003 47.4737 31.9026 47.4059C32.4185 47.3246 32.9887 47.5279 33.3416 47.9074C33.7489 48.3412 33.8711 48.9512 34.0476 49.5069C34.2105 50.0762 34.482 50.6726 35.0114 50.9302C35.7445 51.2826 36.7763 50.7946 37.5772 50.6184C39.1927 50.2524 40.3195 50.8624 41.3784 51.6621ZM38.3782 18.1548C39.6543 19.334 40.5639 20.947 40.9304 22.6549C41.1883 23.9155 41.1612 25.2168 40.8625 26.4503C41.2019 25.2303 41.5277 24.024 41.8807 22.7905C42.0707 22.0992 42.2608 21.3401 41.9757 20.6759C41.6906 19.9982 40.9847 19.6051 40.591 18.9816C40.0887 18.1683 40.2109 17.0975 39.8308 16.23C39.2334 14.8881 37.5365 14.3052 36.1111 14.6305C34.6992 14.9694 33.5317 16.0131 32.6629 17.1788L32.7036 17.2195C33.1244 16.9755 33.6675 16.9213 34.1154 17.0975C34.6177 17.2873 35.0114 17.7346 35.12 18.2496C35.2558 18.8189 35.0793 19.4289 34.9571 19.9847C34.835 20.5675 34.7807 21.2181 35.1065 21.6926C35.568 22.3703 36.5183 22.411 37.3057 22.6143C38.5818 22.9531 39.695 23.8884 40.2245 25.0948C40.2516 25.149 40.2652 25.2032 40.2923 25.2575C40.3874 22.7905 39.6679 20.31 38.2832 18.2632L38.3646 18.1819L38.3782 18.1548ZM60.9136 4.23404C60.8186 3.96294 60.7236 3.71895 60.6014 3.47497C59.9226 2.03817 58.8366 0.777573 57.3433 0.289602C55.5785 -0.279697 53.4878 0.479369 52.4561 1.9975C52.7547 1.64508 53.1756 1.37398 53.6507 1.31976C54.3974 1.23844 55.1983 1.73996 55.3748 2.45836C55.5241 3.05477 55.2798 3.69184 54.9132 4.19337C53.8001 5.72506 51.7909 6.29436 49.9174 6.63323C48.044 6.98565 46.0212 7.2703 44.5958 8.51734C43.4826 9.47972 42.8581 10.9707 42.926 12.4347C42.9803 13.3564 43.3061 14.2646 43.8491 15.0236C43.2382 14.5763 42.5595 14.2374 41.84 14.007C41.487 13.885 41.0661 13.8037 40.8082 14.0748C41.7449 14.3459 42.3966 15.2134 42.8445 16.108C43.6184 17.6939 43.7405 19.0494 43.5098 20.8251C43.5912 20.3371 45.9126 14.4272 52.1981 10.5505C48.6413 14.1697 45.9669 18.5072 44.46 22.4923C45.1388 21.2046 45.9398 19.8491 47.3924 19.4967C49.0486 19.0765 50.7863 19.1172 52.4832 18.8596C54.1666 18.6021 55.9178 17.9379 56.8681 16.5146C55.7549 16.9755 54.5196 17.0975 53.3521 16.84C52.1438 16.5689 51.1257 15.7962 50.3111 14.8881C52.1438 15.9725 54.4924 16.108 56.4609 15.3083C58.5108 14.495 60.1263 12.7464 60.9136 10.6861C61.701 8.63933 61.6467 6.29436 60.9136 4.23404ZM46.6729 52.2721C46.4149 52.4754 46.2656 52.6516 46.1977 52.8143C48.3155 53.8444 50.4469 56.5418 51.0985 60.4591H52.6733V48.7072H47.8675C47.8811 50.1304 47.8675 51.4046 46.6729 52.2721ZM35.3101 52.2721C33.7353 52.2721 32.8665 51.7434 32.8529 50.5913C32.8393 49.4256 31.7533 48.8292 30.898 48.8969C30.6673 48.9105 30.4772 48.8427 30.3143 48.7207H10.684C17.0781 38.7173 21.0422 24.8373 22.5355 5.94193H35.1336V13.4784C35.2286 13.4784 35.3237 13.4648 35.4323 13.4784C36.2468 13.0175 37.6179 12.5431 39.3149 12.9091C39.7086 12.4618 40.591 11.7569 41.4598 11.7434C41.2834 9.61527 42.9396 5.72506 48.397 5.12865C49.1708 4.11204 50.1346 3.42075 51.0849 3.20387V2.64813H12.8832V3.20387C15.2454 3.99005 16.6572 5.96904 16.6572 10.1032C16.6572 15.2405 15.4897 21.6383 13.1819 29.2968C10.8605 36.9417 7.80597 43.4208 4.0048 48.7343H5.72205e-06V60.4863H1.57477C2.49791 54.9695 5.81036 52.3534 8.28111 52.3534H36.274C35.8395 52.3127 35.5137 52.2856 35.3101 52.2856V52.2721ZM255.452 42.8786V48.9376H257.298C257.99 48.9647 258.574 48.9241 259.036 48.8292C259.484 48.7207 259.891 48.5581 260.23 48.3412C260.638 48.0837 260.977 47.7177 261.221 47.2839C261.466 46.8366 261.574 46.3487 261.574 45.7929C261.547 45.2236 261.398 44.7221 261.126 44.2883C260.841 43.8681 260.448 43.5428 259.972 43.2853C259.606 43.1362 259.239 43.0277 258.805 42.96C258.398 42.8922 257.8 42.8651 257.027 42.8651H255.452V42.8786ZM255.452 33.9596V39.5848H256.66C257.76 39.6119 258.588 39.368 259.158 38.8393C259.715 38.3378 260 37.6194 260 36.7248C260 35.8708 259.701 35.1931 259.144 34.7187C258.574 34.2307 257.76 33.9867 256.701 33.9596H255.452ZM251.162 30.476H256.606C257.963 30.476 259.063 30.598 259.891 30.842C260.706 31.0996 261.398 31.4384 261.982 31.8451C262.62 32.3601 263.108 33.0108 263.489 33.8105C263.841 34.6102 264.018 35.4777 264.018 36.3995C264.018 37.4025 263.801 38.27 263.339 38.9884C262.891 39.7204 262.294 40.2897 261.547 40.6963C262.145 40.8183 262.674 40.981 263.136 41.2114C263.597 41.4418 264.032 41.74 264.425 42.0789C264.941 42.6075 265.348 43.2175 265.606 43.9359C265.864 44.6543 266 45.3998 266 46.1995C266 47.0942 265.837 47.9346 265.525 48.6801C265.199 49.4391 264.737 50.0898 264.113 50.6455C263.407 51.2555 262.62 51.7028 261.71 51.9874C260.814 52.2721 259.742 52.4212 258.533 52.4212H251.148V30.4625L251.162 30.476ZM232.984 49.046C235.129 49.046 236.88 48.3412 238.238 46.9179C239.623 45.5083 240.301 43.6919 240.301 41.4689C240.301 39.2595 239.609 37.4432 238.238 36.0064C236.867 34.5831 235.116 33.8783 232.984 33.8783C230.839 33.8783 229.074 34.5967 227.703 36.0064C226.319 37.4432 225.64 39.2595 225.667 41.4689C225.667 43.6919 226.346 45.5083 227.717 46.9179C229.074 48.3412 230.826 49.046 232.984 49.046ZM232.984 29.9745C236.419 29.9745 239.229 31.0724 241.428 33.2276C243.614 35.3829 244.727 38.148 244.727 41.4689C244.7 44.8305 243.587 47.5821 241.415 49.7102C239.215 51.8519 236.419 52.9227 232.984 52.9227C229.55 52.9227 226.712 51.8519 224.54 49.7102C222.354 47.5821 221.255 44.8305 221.255 41.4689C221.255 38.148 222.354 35.3829 224.54 33.2412C226.739 31.0996 229.55 30.0016 232.984 29.9745ZM201.72 30.476V38.9613H211.019V30.476H215.295V52.4347H211.019V42.6618H201.72V52.4347H197.43V30.476H201.72ZM170.048 30.476H174.324V45.2507L186.461 29.9745H189.434V52.4347H185.144V37.6194L173.007 52.882H170.048V30.476ZM148.137 30.476V38.9613H157.422V30.476H161.712V52.4347H157.422V42.6618H148.137V52.4347H143.847V30.476H148.137ZM131.751 33.9596H130.434C129.022 33.9596 127.977 34.2443 127.298 34.8542C126.633 35.4506 126.28 36.2368 126.28 37.267C126.253 38.3242 126.606 39.1375 127.285 39.7068C127.977 40.2897 129.05 40.5743 130.502 40.5743H131.751V33.9596ZM136.041 30.476V52.4347H131.751V43.9359H130.964L125.371 52.4347H120.212L126.728 43.5428C126.294 43.475 125.873 43.3531 125.452 43.1904C125.045 43.0277 124.665 42.8244 124.339 42.5398C123.524 41.9705 122.9 41.225 122.493 40.2897C122.072 39.3544 121.868 38.3513 121.868 37.2534C121.868 36.2368 122.058 35.288 122.411 34.4069C122.764 33.5259 123.321 32.7803 124.04 32.1433C124.651 31.5875 125.384 31.1809 126.239 30.8827C127.095 30.598 128.235 30.4625 129.674 30.4625H136.041V30.476ZM105.849 34.1629V40.615H107.6C108.387 40.615 108.985 40.5608 109.365 40.4523C109.759 40.3439 110.098 40.1677 110.397 39.9373C110.777 39.639 111.062 39.2731 111.252 38.8122C111.456 38.3513 111.564 37.8634 111.591 37.3754C111.591 36.8603 111.483 36.3995 111.252 35.9522C111.035 35.5184 110.75 35.1524 110.356 34.8678C110.03 34.6509 109.636 34.4747 109.175 34.3527C108.727 34.2307 108.102 34.1765 107.329 34.1765H105.835L105.849 34.1629ZM101.573 30.476H107.967C109.433 30.476 110.6 30.6116 111.442 30.8691C112.284 31.1402 113.057 31.5604 113.763 32.1568C114.496 32.821 115.053 33.6072 115.433 34.5018C115.813 35.4235 116.017 36.413 116.017 37.4567C116.017 38.4191 115.868 39.3273 115.555 40.1812C115.257 41.0352 114.795 41.7671 114.211 42.35C113.573 42.9871 112.786 43.475 111.863 43.8004C110.94 44.1257 109.867 44.2883 108.632 44.2883H105.862V52.4347H101.586V30.476H101.573ZM94.5811 30.476V34.1629H86.6665V39.0697H94.2417V42.7566H86.6665V48.7343H94.5811V52.4347H82.3767V30.476H94.5811ZM66.0045 42.8786V48.9376H67.8508C68.5567 48.9647 69.1269 48.9241 69.5884 48.8292C70.0364 48.7207 70.4437 48.5581 70.7831 48.3412C71.2039 48.0837 71.5298 47.7177 71.7741 47.2839C72.032 46.8366 72.1407 46.3487 72.1407 45.7929C72.1135 45.2236 71.9506 44.7221 71.6791 44.2883C71.394 43.8681 71.0003 43.5428 70.5252 43.2853C70.1722 43.1362 69.7921 43.0277 69.3712 42.96C68.9504 42.8922 68.3531 42.8651 67.5928 42.8651H66.0045V42.8786ZM66.0045 33.9596V39.5848H67.2127C68.3123 39.6119 69.1405 39.368 69.7106 38.8393C70.2808 38.3378 70.5523 37.6194 70.5523 36.7248C70.5523 35.8708 70.2672 35.1931 69.6971 34.7187C69.1269 34.2307 68.3124 33.9867 67.2535 33.9596H66.0045ZM61.7146 30.476H67.1584C68.5296 30.476 69.6156 30.598 70.4437 30.842C71.2718 31.0996 71.9506 31.4384 72.5344 31.8451C73.1724 32.3601 73.6611 33.0108 74.0412 33.8105C74.3942 34.6102 74.5707 35.4777 74.5707 36.3995C74.5707 37.4025 74.3535 38.27 73.9055 38.9884C73.4439 39.7204 72.8466 40.2897 72.1135 40.6963C72.6973 40.8183 73.2267 40.981 73.6883 41.2114C74.1498 41.4418 74.5843 41.74 74.978 42.0789C75.4938 42.6075 75.9011 43.2175 76.159 43.9359C76.417 44.6543 76.5663 45.3998 76.5663 46.1995C76.5663 47.0942 76.3898 47.9346 76.0776 48.6801C75.7653 49.4391 75.2902 50.0898 74.6657 50.6455C73.9734 51.2555 73.1724 51.7028 72.2628 51.9874C71.3669 52.2721 70.308 52.4212 69.0862 52.4212H61.701V30.4625L61.7146 30.476ZM49.4016 73.1735H25.7665V74.9898H49.4016V73.1735ZM242.772 73.1735H219.137V74.9898H242.772V73.1735ZM62.6649 77.5924H62.407C61.7825 77.5924 60.7236 77.5381 59.8548 76.9146C59.1896 76.4538 58.4836 75.5863 58.4836 74.0275C58.4836 72.4822 59.1896 71.6147 59.8548 71.1538C60.7236 70.5439 61.7825 70.4761 62.407 70.4761H62.6649V69.4053H64.4297V70.4761H64.6741C65.2986 70.4761 66.371 70.5439 67.2399 71.1538C67.8915 71.6147 68.5974 72.4822 68.5974 74.0275C68.5974 75.5863 67.8915 76.4538 67.2399 76.9146C66.371 77.5381 65.2986 77.5924 64.6741 77.5924H64.4297V78.853H62.6649V77.5924ZM62.6649 71.9942H62.3798C62.1083 71.9942 61.5246 72.0214 61.0494 72.3738C60.7236 72.6178 60.3163 73.1193 60.3163 74.0275C60.3163 74.9627 60.7236 75.4371 61.0494 75.6947C61.4974 76.0471 61.9454 76.0742 62.3798 76.0742H62.6649V71.9942ZM64.4297 76.0742H64.7012C65.1085 76.0742 65.5972 76.0471 66.0588 75.6947C66.371 75.4507 66.7783 74.9492 66.7783 74.0275C66.7783 73.2413 66.4661 72.672 66.0588 72.3738C65.733 72.1433 65.2714 71.9942 64.7012 71.9942H64.4297V76.0742ZM78.3854 76.9417H74.72L73.9191 78.853H71.9913L75.9418 69.5815H77.2722L81.1006 78.853H79.2L78.3854 76.9417ZM77.8696 75.5049L76.5935 72.2382L75.2766 75.5049H77.8696ZM85.1732 69.7713H90.427V71.3029H86.9381V73.3904H88.1734C88.8522 73.3904 89.7346 73.4853 90.4405 74.1088C90.9564 74.5832 91.3094 75.2745 91.3094 76.1284C91.3094 76.752 91.1057 77.2942 90.7935 77.755C90.1012 78.7309 88.9744 78.853 88.187 78.853H85.1732V69.7713ZM86.9381 77.3213H87.7933C89.2052 77.3213 89.4767 76.6706 89.4767 76.142C89.4767 75.5727 89.1644 74.9085 87.8069 74.9085H86.9381V77.3213ZM98.5859 69.7713C99.6041 69.7713 100.31 69.8797 100.989 70.4761C101.722 71.1132 101.912 72.0078 101.912 72.6584C101.912 73.0108 101.858 74.0003 101.165 74.6916C100.663 75.1932 99.9027 75.4914 98.8574 75.4914H97.7171V78.853H95.9387V69.7713H98.5859ZM97.7171 73.9732H98.4366C98.776 73.9732 99.2104 73.9732 99.5905 73.675C99.9163 73.431 100.079 73.0108 100.079 72.6178C100.079 72.1162 99.8348 71.7774 99.5769 71.5876C99.2104 71.3301 98.7488 71.3029 98.328 71.3029H97.7171V73.9732ZM107.994 69.7713V75.8709L113.003 69.5679H114.239V78.853H112.46V72.7262L107.451 79.0292H106.215V69.7713H107.994ZM121.081 73.6208L124.42 69.7713H126.66L122.818 73.9732L126.864 78.853H124.515L121.284 74.7865L121.081 74.9898V78.853H119.302V69.7713H121.081V73.6208ZM136.367 76.9417H132.701L131.9 78.853H129.973L133.91 69.5815H135.24L139.082 78.853H137.168L136.367 76.9417ZM135.851 75.5049L134.561 72.2382L133.258 75.5049H135.851ZM156.323 69.7713V77.3213H157.273V80.8997H155.644V78.853H150.051V80.8997H148.422V77.3213C149.074 77.3484 149.589 76.7791 149.861 76.1013C150.037 75.654 150.187 74.9763 150.187 73.7292V69.7713H156.323ZM151.911 73.7292C151.911 75.1254 151.761 75.8167 151.599 76.2504C151.408 76.752 151.151 77.0773 150.879 77.3213H154.558V71.3029H151.911V73.7292ZM163.694 69.7713C164.21 69.7713 165.188 69.7713 165.921 70.3541C166.45 70.7608 166.762 71.4656 166.762 72.2247C166.762 73.3904 165.989 73.8648 165.744 74.0003C166.342 74.1088 166.695 74.3663 166.925 74.5832C167.482 75.0983 167.591 75.8167 167.591 76.2775C167.591 76.8062 167.441 77.5652 166.817 78.121C166.124 78.7174 165.296 78.853 164.509 78.853H161.454V69.7713H163.694ZM163.219 73.5395H163.735C164.007 73.5395 165.106 73.5124 165.106 72.3602C165.106 71.5334 164.468 71.2216 163.749 71.2216H163.219V73.5395ZM163.219 77.4026H163.993C164.319 77.4026 164.808 77.4026 165.201 77.1586C165.636 76.9146 165.758 76.4673 165.758 76.1149C165.758 75.8302 165.663 75.3423 165.093 75.0847C164.713 74.9085 164.265 74.9085 163.884 74.9085H163.219V77.4026ZM177.27 71.3029H173.998V73.3226H177.134V74.8543H173.998V77.3213H177.27V78.853H172.22V69.7713H177.27V71.3029ZM184.628 69.7713C185.646 69.7713 186.366 69.8797 187.031 70.4761C187.764 71.1132 187.954 72.0078 187.954 72.6584C187.954 73.0108 187.9 74.0003 187.207 74.6916C186.705 75.1932 185.958 75.4914 184.899 75.4914H183.759V78.853H181.981V69.7713H184.628ZM183.759 73.9732H184.479C184.818 73.9732 185.252 73.9732 185.633 73.675C185.972 73.431 186.135 73.0108 186.135 72.6178C186.135 72.1162 185.89 71.7774 185.633 71.5876C185.252 71.3301 184.791 71.3029 184.37 71.3029H183.759V73.9732ZM197.308 71.3029H194.036V73.3226H197.172V74.8543H194.036V77.3213H197.308V78.853H192.271V69.7713H197.308V71.3029ZM203.797 69.7713V75.8709L208.82 69.5679H210.041V78.853H208.277V72.7262L203.254 79.0292H202.032V69.7713H203.797ZM204.801 66.8705C205.1 67.6432 205.86 67.6703 206.037 67.6703C206.213 67.6703 206.973 67.6432 207.258 66.8705L208.494 67.3721C208.141 68.2938 207.286 68.8902 206.037 68.8902C204.788 68.8902 203.932 68.2938 203.579 67.3721L204.801 66.8705Z" fill="white"/>
</g>
<defs>
<clipPath id="clip0_0_64">
<rect width="266" height="81" fill="white"/>
</clipPath>
</defs>
</svg>
