<svg width="26" height="26" viewBox="0 0 26 26" fill="none" xmlns="http://www.w3.org/2000/svg">
<path d="M20.4256 6.17439C20.404 6.20108 20.3824 6.22786 20.3609 6.25471C18.4485 8.87854 17.4981 12.1138 17.5208 15.3548C17.5495 16.9889 17.7849 18.623 18.3188 20.1638C18.5829 20.9342 18.9732 21.7629 19.3521 22.4749H18.8527C17.7332 20.298 17.1419 17.806 17.1649 15.3548C17.1879 13.6914 17.4806 12.0281 18.0317 10.4698C18.5769 8.94426 19.3587 7.50819 20.3609 6.25471C20.3805 6.22787 20.4001 6.2011 20.4199 6.17439H20.4256Z" fill="#611025"/>
<path d="M14.8169 17.9052C14.6964 17.8235 14.6677 17.6542 14.6849 17.5025C14.7193 17.234 14.8801 16.9714 15.1154 16.8313C15.3508 16.6854 15.6436 16.6562 15.9019 16.7613L15.9249 16.7438C15.6723 16.201 15.3106 15.7108 14.8628 15.3139V15.3081C15.3336 15.2789 15.8043 15.5007 16.0684 15.8917L16.143 15.8975C15.9823 15.3256 15.3853 15.0104 15.0523 14.5202C14.6275 13.884 14.6791 13.0553 14.7767 12.2966C14.8743 11.5495 14.9949 10.75 14.6734 10.073L14.6849 10.0671C15.3278 10.4757 15.8273 11.1002 16.0971 11.8238C16.3497 12.5242 16.3841 13.3062 16.189 14.0183L16.2119 14.0241C16.3727 13.4463 16.6425 12.8919 16.9927 12.4016C16.5047 14.6953 16.6253 17.129 17.3429 19.3584C17.2108 18.979 16.9869 18.623 16.7516 18.302C16.4875 17.9227 16.0971 17.6134 15.6436 17.5433C15.3393 17.4908 14.9719 17.5959 14.8341 17.876L14.8169 17.9052Z" fill="#611025"/>
<path d="M20.0869 18.1269C20.5118 18.1269 21.0055 18.483 21.1318 18.8973H21.1145C20.6495 18.6989 19.599 18.9148 19.6851 19.9945C19.7138 20.3272 19.5932 20.4789 19.6334 20.8058C19.6679 21.1268 19.5473 21.3427 19.4497 21.3952C17.5897 17.8293 16.6425 11.4503 22.056 10.4173L22.0618 10.5049C21.591 10.6975 21.3442 11.2461 21.3212 11.7655C21.2982 12.2791 21.4475 12.7868 21.5049 13.3004C21.5681 13.8082 21.5336 14.3743 21.2064 14.7711C20.8792 15.1738 20.3453 15.3081 19.8688 15.489C19.3866 15.6757 18.8814 15.9967 18.8067 16.5103H18.824C19.0938 16.2302 19.5129 16.1601 19.8975 16.1251L19.9041 16.1246C20.2522 16.0956 20.6112 16.0657 20.9079 15.8917C20.9595 16.2944 20.7242 16.6912 20.4256 16.9714C20.1214 17.2574 19.7482 17.4616 19.444 17.7534C19.1569 18.0219 18.9273 18.4013 18.9617 18.7923H18.9675C19.1225 18.3896 19.5645 18.1269 20.0869 18.1269Z" fill="#611025"/>
<path d="M18.2786 11.783C18.2797 11.7811 18.2808 11.7792 18.2819 11.7773C18.6985 10.3451 18.8481 9.94398 19.2947 9.71697C19.4497 9.63526 19.6334 9.58274 19.7769 9.47185C19.9262 9.34929 20.0123 9.1742 20.1329 9.02246C20.4314 8.65478 20.9481 8.49137 21.4016 8.61976C21.8494 8.75399 22.2053 9.16837 22.2684 9.63526C22.1594 9.58274 22.0388 9.53021 21.9182 9.5127C21.7805 9.49519 21.6255 9.51854 21.5221 9.60608C21.3786 9.72864 21.3556 9.95042 21.2408 10.108C21.1031 10.3239 20.839 10.4115 20.5921 10.4348C20.351 10.4582 20.0984 10.429 19.8516 10.464C19.2619 10.5397 18.678 11.1086 18.2819 11.7773C18.2808 11.7812 18.2797 11.785 18.2786 11.7888V11.783Z" fill="#611025"/>
<path d="M15.2647 19.9245C16.2004 20.4031 17.0214 21.2493 17.4979 22.2006C17.0501 21.8563 16.5736 21.5937 15.8904 21.7512C15.5517 21.8271 15.1154 22.0372 14.8054 21.8855C14.5815 21.7746 14.4667 21.5178 14.3978 21.2727C14.3232 21.0334 14.2715 20.7708 14.0993 20.584C13.9501 20.4206 13.7089 20.333 13.4908 20.3681C13.2784 20.3972 13.0947 20.5256 12.9856 20.7124L12.9684 20.7007C13.043 20.0762 13.2554 19.4401 13.7147 19.0199C14.1682 18.5997 15.4082 18.2962 16.189 18.7573C16.8836 19.1658 16.6827 19.6911 17.1247 20.0646C17.3658 20.263 17.9973 21.2785 17.9054 22.4691C17.7677 21.9438 17.5036 21.4478 17.1477 21.0334C16.6654 20.4614 15.9995 20.0529 15.2762 19.8778L15.2647 19.9245Z" fill="#611025"/>
<path d="M17.3084 9.71113C17.1534 8.97577 16.7688 8.28126 16.2291 7.77351L16.2234 7.78518L16.189 7.8202C16.7745 8.70147 17.0788 9.7695 17.0386 10.8317C17.0271 10.8083 17.0214 10.785 17.0099 10.7617C16.786 10.2422 16.3153 9.83953 15.7756 9.69363C15.4427 9.60608 15.0408 9.58857 14.8456 9.29676C14.7078 9.09249 14.7308 8.81236 14.7825 8.5614C14.8341 8.32211 14.9088 8.05949 14.8514 7.81436C14.8054 7.59259 14.639 7.39999 14.4265 7.31829C14.2371 7.24242 14.0075 7.26576 13.8295 7.37081L13.8123 7.3533C14.1797 6.85139 14.6734 6.402 15.2704 6.2561C15.8732 6.11603 16.5908 6.36698 16.8434 6.94477C17.0041 7.31829 16.9525 7.77935 17.1649 8.12952C17.3314 8.39799 17.6299 8.56724 17.7504 8.85905C17.871 9.14502 17.7906 9.47185 17.7103 9.7695C17.561 10.3006 17.4232 10.82 17.2797 11.3453C17.406 10.8142 17.4175 10.2539 17.3084 9.71113Z" fill="#611025"/>
<path d="M25.6268 1.45289C25.6784 1.55795 25.7186 1.663 25.7588 1.77972C26.0688 2.66683 26.0918 3.67649 25.7588 4.55776C25.4258 5.44486 24.7427 6.19773 23.8758 6.54791C23.0434 6.89224 22.0503 6.83388 21.2753 6.36698C21.6197 6.75801 22.0503 7.09067 22.5612 7.2074C23.0549 7.31829 23.5773 7.26576 24.0481 7.06733C23.6462 7.68013 22.9057 7.96611 22.1938 8.07699C21.4762 8.18788 20.7414 8.17037 20.041 8.3513C19.4268 8.50304 19.088 9.08666 18.801 9.6411C19.4382 7.92525 20.5692 6.05766 22.0732 4.4994C19.4153 6.16855 18.4336 8.71314 18.3992 8.92324C18.4967 8.1587 18.4451 7.57508 18.1179 6.89224C17.9284 6.50705 17.6529 6.13354 17.2567 6.01681C17.3658 5.90009 17.5438 5.9351 17.693 5.98763C17.9973 6.08685 18.2843 6.23275 18.5427 6.42535C18.313 6.09852 18.1753 5.70749 18.1523 5.31063C18.1236 4.68032 18.3877 4.03834 18.8584 3.62396C19.4612 3.08703 20.3166 2.96447 21.1088 2.81273C21.901 2.66683 22.7507 2.4217 23.2214 1.76221C23.3764 1.54627 23.4797 1.27197 23.4166 1.01518C23.342 0.705859 23.0032 0.489919 22.6875 0.524936C22.4866 0.548281 22.3086 0.665005 22.1823 0.816747C22.6186 0.163091 23.5027 -0.163737 24.249 0.081384C24.8805 0.291488 25.3397 0.834255 25.6268 1.45289Z" fill="#611025"/>
<path d="M19.5358 22.6967C19.5645 22.6267 19.6277 22.5508 19.7368 22.4633C20.2419 22.0897 20.2477 21.5411 20.2419 20.9283H22.2742V25.9883H21.6082C21.3327 24.3017 20.4314 23.1403 19.5358 22.6967Z" fill="#611025"/>
<path d="M13.8927 21.7396C13.8984 22.2356 14.2658 22.4633 14.9317 22.4633V22.4691C15.0178 22.4691 15.1556 22.4808 15.3393 22.4983H3.50187C2.45705 22.4983 1.0563 23.6247 0.665929 26H0V20.94H1.69353C3.30094 18.6522 4.59261 15.8625 5.57428 12.5709C6.55021 9.27342 7.04392 6.51873 7.04392 4.3068C7.04392 2.52676 6.44688 1.67467 5.44799 1.33617V1.09688H21.6025V1.33617C21.2006 1.42955 20.7931 1.7272 20.4658 2.16491C18.158 2.42171 17.4577 4.0967 17.5323 5.01298C17.1649 5.01882 16.7917 5.3223 16.6253 5.5149C15.9077 5.35732 15.3278 5.56159 14.9834 5.76002C14.9375 5.75418 14.8973 5.76002 14.8571 5.76002V2.51508H9.52967C8.89819 10.6508 7.22188 16.627 4.51798 20.9342H12.8191C12.888 20.9867 12.9684 21.0159 13.066 21.01C13.4277 20.9809 13.8869 21.2377 13.8927 21.7396Z" fill="#611025"/>
</svg>
